HIERARCHY
ROOT Hips
{
	OFFSET 0.000000 71.427986 0.000000
	CHANNELS 6 Xposition Yposition Zposition Xrotation Yrotation Zrotation
	JOINT Pelvis
	{
		OFFSET 0.000000 0.000000 0.000000
		CHANNELS 3 Xrotation Yrotation Zrotation
		JOINT LeftUpLeg
		{
			OFFSET 6.797100 -2.508499 -1.318700
			CHANNELS 3 Xrotation Yrotation Zrotation
			JOINT LeftLeg
			{
				OFFSET 0.069008 -29.241863 0.690200
				CHANNELS 3 Xrotation Yrotation Zrotation
				JOINT LeftFoot
				{
					OFFSET -0.069008 -29.568123 -0.266800
					CHANNELS 3 Xrotation Yrotation Zrotation
					JOINT LeftToeBase
					{
						OFFSET 3.145500 -8.631000 16.059900
						CHANNELS 3 Xrotation Yrotation Zrotation
						End Site
						{
							OFFSET 0.000000 18.501587 0.000000
						}
					}
				}
			}
			JOINT Left_ShortSleeve
			{
				OFFSET 0.265923 -10.480953 1.153800
				CHANNELS 3 Xrotation Yrotation Zrotation
				End Site
				{
					OFFSET 1.725763 19.823879 0.000000
				}
			}
		}
		JOINT RightUpLeg
		{
			OFFSET -6.797100 -2.508499 -1.318700
			CHANNELS 3 Xrotation Yrotation Zrotation
			JOINT RightLeg
			{
				OFFSET -0.082453 -29.241932 0.688000
				CHANNELS 3 Xrotation Yrotation Zrotation
				JOINT RightFoot
				{
					OFFSET 0.082453 -29.568058 -0.264600
					CHANNELS 3 Xrotation Yrotation Zrotation
					JOINT RightToeBase
					{
						OFFSET -3.115300 -8.682800 16.113400
						CHANNELS 3 Xrotation Yrotation Zrotation
						End Site
						{
							OFFSET 0.000000 18.567114 0.000000
						}
					}
				}
			}
			JOINT Right_ShortSleeve
			{
				OFFSET -0.265923 -10.480953 1.153800
				CHANNELS 3 Xrotation Yrotation Zrotation
				End Site
				{
					OFFSET -1.725766 19.823910 0.000000
				}
			}
		}
	}
	JOINT Spine
	{
		OFFSET 0.000000 13.368103 0.470500
		CHANNELS 3 Xrotation Yrotation Zrotation
		JOINT Spine1
		{
			OFFSET 0.147000 13.837402 0.538800
			CHANNELS 3 Xrotation Yrotation Zrotation
			JOINT Spine2
			{
				OFFSET 0.168000 16.242897 -1.435500
				CHANNELS 3 Xrotation Yrotation Zrotation
				JOINT Neck
				{
					OFFSET 0.217200 18.631500 -1.679100
					CHANNELS 3 Xrotation Yrotation Zrotation
					JOINT Head
					{
						OFFSET 0.000000 6.599396 1.385900
						CHANNELS 3 Xrotation Yrotation Zrotation
						JOINT Hat
						{
							OFFSET -0.532200 27.220596 -10.096100
							CHANNELS 3 Xrotation Yrotation Zrotation
							End Site
							{
								OFFSET 0.000000 22.029861 0.000000
							}
						}
						JOINT HairD
						{
							OFFSET -10.777400 17.437393 -1.325900
							CHANNELS 3 Xrotation Yrotation Zrotation
							JOINT HairD1
							{
								OFFSET -3.290299 -11.051193 1.062200
								CHANNELS 3 Xrotation Yrotation Zrotation
								End Site
								{
									OFFSET 0.000000 11.579437 0.000000
								}
							}
						}
						JOINT HairB
						{
							OFFSET -10.777400 17.437393 1.467900
							CHANNELS 3 Xrotation Yrotation Zrotation
							JOINT HairB1
							{
								OFFSET -1.561200 -12.956299 3.590200
								CHANNELS 3 Xrotation Yrotation Zrotation
								End Site
								{
									OFFSET 0.000000 13.534866 0.000000
								}
							}
						}
						JOINT HairA
						{
							OFFSET 9.713100 17.437393 1.467900
							CHANNELS 3 Xrotation Yrotation Zrotation
							JOINT HairA1
							{
								OFFSET 1.561200 -12.956299 3.590200
								CHANNELS 3 Xrotation Yrotation Zrotation
								End Site
								{
									OFFSET 0.000000 13.534866 0.000000
								}
							}
						}
						JOINT HairC
						{
							OFFSET 9.713100 17.437393 -1.325900
							CHANNELS 3 Xrotation Yrotation Zrotation
							JOINT HairC1
							{
								OFFSET 3.290300 -11.051193 1.062200
								CHANNELS 3 Xrotation Yrotation Zrotation
								End Site
								{
									OFFSET 0.000000 11.579437 0.000000
								}
							}
						}
					}
				}
				JOINT LeftShoulder
				{
					OFFSET 5.101800 15.108002 -2.763700
					CHANNELS 3 Xrotation Yrotation Zrotation
					JOINT LeftArm
					{
						OFFSET 9.825497 2.506317 -1.597400
						CHANNELS 3 Xrotation Yrotation Zrotation
						JOINT LeftForeArm
						{
							OFFSET 21.966244 0.000000 0.000000
							CHANNELS 3 Xrotation Yrotation Zrotation
							JOINT LeftHand
							{
								OFFSET 33.879036 0.000000 0.000000
								CHANNELS 3 Xrotation Yrotation Zrotation
								JOINT LeftHandThumb1
								{
									OFFSET 6.715286 -2.359680 3.363841
									CHANNELS 3 Xrotation Yrotation Zrotation
									JOINT LeftHandThumb2
									{
										OFFSET 2.507072 -1.447464 1.447461
										CHANNELS 3 Xrotation Yrotation Zrotation
										JOINT LeftHandThumb3
										{
											OFFSET 2.898338 -1.673355 1.673357
											CHANNELS 3 Xrotation Yrotation Zrotation
											End Site
											{
												OFFSET -0.295959 3.727692 -0.131651
											}
										}
									}
								}
								JOINT LeftHandIndex1
								{
									OFFSET 14.190811 -0.254547 3.840278
									CHANNELS 3 Xrotation Yrotation Zrotation
									JOINT LeftHandIndex2
									{
										OFFSET 3.551727 0.000000 -0.000000
										CHANNELS 3 Xrotation Yrotation Zrotation
										JOINT LeftHandIndex3
										{
											OFFSET 2.894196 0.000000 0.000000
											CHANNELS 3 Xrotation Yrotation Zrotation
											End Site
											{
												OFFSET -1.000603 2.690872 0.366626
											}
										}
									}
								}
								JOINT LeftHandMiddle1
								{
									OFFSET 13.776489 0.000000 0.000000
									CHANNELS 3 Xrotation Yrotation Zrotation
									JOINT LeftHandMiddle2
									{
										OFFSET 3.438232 0.000000 0.000000
										CHANNELS 3 Xrotation Yrotation Zrotation
										JOINT LeftHandMiddle3
										{
											OFFSET 3.691551 0.000000 0.000000
											CHANNELS 3 Xrotation Yrotation Zrotation
											End Site
											{
												OFFSET -1.082298 3.499527 0.457670
											}
										}
									}
								}
								JOINT LeftHandRing1
								{
									OFFSET 13.966164 -0.268127 -3.067488
									CHANNELS 3 Xrotation Yrotation Zrotation
									JOINT LeftHandRing2
									{
										OFFSET 3.162567 0.000000 0.000000
										CHANNELS 3 Xrotation Yrotation Zrotation
										JOINT LeftHandRing3
										{
											OFFSET 3.324348 0.000000 0.000000
											CHANNELS 3 Xrotation Yrotation Zrotation
											End Site
											{
												OFFSET -0.861900 3.184998 0.405154
											}
										}
									}
								}
								JOINT LeftHandPinky1
								{
									OFFSET 13.131393 -0.168503 -5.746925
									CHANNELS 3 Xrotation Yrotation Zrotation
									JOINT LeftHandPinky2
									{
										OFFSET 2.849182 0.000000 0.000000
										CHANNELS 3 Xrotation Yrotation Zrotation
										JOINT LeftHandPinky3
										{
											OFFSET 2.805038 0.000000 0.000000
											CHANNELS 3 Xrotation Yrotation Zrotation
											End Site
											{
												OFFSET -0.882500 2.642609 0.325652
											}
										}
									}
								}
							}
							JOINT Left_Sleeve
							{
								OFFSET 6.592125 -0.646545 0.805568
								CHANNELS 3 Xrotation Yrotation Zrotation
								End Site
								{
									OFFSET -0.000179 20.275787 -0.000000
								}
							}
						}
					}
				}
				JOINT RightShoulder
				{
					OFFSET -5.731700 15.108002 -2.763700
					CHANNELS 3 Xrotation Yrotation Zrotation
					JOINT RightArm
					{
						OFFSET -9.825497 2.506317 -1.597400
						CHANNELS 3 Xrotation Yrotation Zrotation
						JOINT RightForeArm
						{
							OFFSET -21.966242 0.000000 0.000000
							CHANNELS 3 Xrotation Yrotation Zrotation
							JOINT RightHand
							{
								OFFSET -33.879032 0.000000 0.000000
								CHANNELS 3 Xrotation Yrotation Zrotation
								JOINT RightHandThumb1
								{
									OFFSET -6.715286 -2.359680 3.363841
									CHANNELS 3 Xrotation Yrotation Zrotation
									JOINT RightHandThumb2
									{
										OFFSET -2.507072 -1.447464 1.447461
										CHANNELS 3 Xrotation Yrotation Zrotation
										JOINT RightHandThumb3
										{
											OFFSET -2.898338 -1.673355 1.673357
											CHANNELS 3 Xrotation Yrotation Zrotation
											End Site
											{
												OFFSET 0.295959 3.727692 -0.131651
											}
										}
									}
								}
								JOINT RightHandIndex1
								{
									OFFSET -14.190811 -0.254547 3.840278
									CHANNELS 3 Xrotation Yrotation Zrotation
									JOINT RightHandIndex2
									{
										OFFSET -3.551727 0.000000 -0.000000
										CHANNELS 3 Xrotation Yrotation Zrotation
										JOINT RightHandIndex3
										{
											OFFSET -2.894196 0.000000 0.000000
											CHANNELS 3 Xrotation Yrotation Zrotation
											End Site
											{
												OFFSET 1.000603 2.690872 0.366626
											}
										}
									}
								}
								JOINT RightHandMiddle1
								{
									OFFSET -13.776489 0.000000 0.000000
									CHANNELS 3 Xrotation Yrotation Zrotation
									JOINT RightHandMiddle2
									{
										OFFSET -3.438232 0.000000 0.000000
										CHANNELS 3 Xrotation Yrotation Zrotation
										JOINT RightHandMiddle3
										{
											OFFSET -3.691551 0.000000 0.000000
											CHANNELS 3 Xrotation Yrotation Zrotation
											End Site
											{
												OFFSET 1.082298 3.499527 0.457670
											}
										}
									}
								}
								JOINT RightHandRing1
								{
									OFFSET -13.966164 -0.268127 -3.067488
									CHANNELS 3 Xrotation Yrotation Zrotation
									JOINT RightHandRing2
									{
										OFFSET -3.162567 0.000000 0.000000
										CHANNELS 3 Xrotation Yrotation Zrotation
										JOINT RightHandRing3
										{
											OFFSET -3.324348 0.000000 0.000000
											CHANNELS 3 Xrotation Yrotation Zrotation
											End Site
											{
												OFFSET 0.861900 3.184998 0.405154
											}
										}
									}
								}
								JOINT RightHandPinky1
								{
									OFFSET -13.131393 -0.168503 -5.746925
									CHANNELS 3 Xrotation Yrotation Zrotation
									JOINT RightHandPinky2
									{
										OFFSET -2.849182 0.000000 0.000000
										CHANNELS 3 Xrotation Yrotation Zrotation
										JOINT RightHandPinky3
										{
											OFFSET -2.805038 0.000000 0.000000
											CHANNELS 3 Xrotation Yrotation Zrotation
											End Site
											{
												OFFSET 0.882500 2.642609 0.325652
											}
										}
									}
								}
							}
							JOINT Right_Sleeve
							{
								OFFSET -6.592125 -0.646545 0.805568
								CHANNELS 3 Xrotation Yrotation Zrotation
								End Site
								{
									OFFSET 0.000179 20.275787 -0.000000
								}
							}
						}
					}
				}
				JOINT Bind_Right_JacketString
				{
					OFFSET -3.534800 11.969597 7.200700
					CHANNELS 3 Xrotation Yrotation Zrotation
					JOINT Bind_Right_JacketString1
					{
						OFFSET -0.319900 -6.102600 2.794100
						CHANNELS 3 Xrotation Yrotation Zrotation
						End Site
						{
							OFFSET 0.000000 6.719452 0.000000
						}
					}
				}
				JOINT Bind_Left_JacketString
				{
					OFFSET 2.904800 11.969597 7.200700
					CHANNELS 3 Xrotation Yrotation Zrotation
					JOINT Bind_Left_JacketString1
					{
						OFFSET 0.364800 -5.904503 3.186800
						CHANNELS 3 Xrotation Yrotation Zrotation
						End Site
						{
							OFFSET 0.000000 6.719513 0.000000
						}
					}
				}
				JOINT HairE
				{
					OFFSET 5.915200 17.612701 -11.592200
					CHANNELS 3 Xrotation Yrotation Zrotation
					JOINT HairE1
					{
						OFFSET 0.289200 -7.171898 -1.284500
						CHANNELS 3 Xrotation Yrotation Zrotation
						End Site
						{
							OFFSET 0.000000 7.291756 0.000000
						}
					}
				}
				JOINT HairF
				{
					OFFSET -0.864800 17.612701 -11.592200
					CHANNELS 3 Xrotation Yrotation Zrotation
					JOINT HairF1
					{
						OFFSET 0.000000 -14.087097 -2.127501
						CHANNELS 3 Xrotation Yrotation Zrotation
						End Site
						{
							OFFSET 0.000000 14.246841 0.000000
						}
					}
				}
				JOINT HairG
				{
					OFFSET -8.087700 17.612701 -11.592200
					CHANNELS 3 Xrotation Yrotation Zrotation
					JOINT HairG1
					{
						OFFSET -0.293600 -6.081398 -0.910100
						CHANNELS 3 Xrotation Yrotation Zrotation
						End Site
						{
							OFFSET 0.000000 6.156120 0.000000
						}
					}
				}
			}
		}
	}
	JOINT Pouch
	{
		OFFSET 0.000000 4.394501 10.847300
		CHANNELS 3 Xrotation Yrotation Zrotation
		End Site
		{
			OFFSET 0.000000 21.880577 0.000000
		}
	}
	JOINT Bag
	{
		OFFSET -13.229000 4.813004 -0.593300
		CHANNELS 3 Xrotation Yrotation Zrotation
		End Site
		{
			OFFSET 0.000000 21.880577 0.000000
		}
	}
	JOINT OccupyGuyFacialAnim_Joint
	{
		OFFSET 1.000000 -70.206398 -1.655000
		CHANNELS 3 Xrotation Yrotation Zrotation
		End Site
		{
			OFFSET 0.000000 21.880577 0.000000
		}
	}
}
MOTION
Frames: 4
Frame Time: 0.033333
35.813396 68.781082 128.142273 -17.155892 76.692280 6.415119 -0.000000 0.000001 -0.000000 -8.971901 6.234855 -5.601303 27.490446 3.237332 0.816904 -14.996831 -3.274066 17.773464 -0.000000 -0.000000 -0.000000 -0.000001 0.000001 -0.000002 -23.455860 4.610237 0.533072 51.014270 -4.067766 0.612620 -6.107120 -1.399842 5.510340 0.000000 -0.000000 0.000001 -0.000003 0.000000 0.000001 14.595460 -0.151288 5.187090 -3.424305 -0.979446 -0.047869 -3.450699 -0.915689 0.062617 7.794732 4.553880 -0.234137 -5.880759 6.656823 -7.601983 0.000000 0.000000 0.000000 0.000000 0.000000 0.000000 0.000000 0.000000 0.000001 0.000000 0.000000 0.000000 0.000000 0.000000 -0.000001 0.000000 0.000000 0.000000 0.000000 0.000000 -0.000001 0.000000 0.000000 0.000000 0.000000 0.000000 0.000000 2.699929 5.202304 -5.356597 -2.588351 -14.633076 -69.291989 8.555573 -21.668461 -2.711119 -8.102770 -0.328411 14.883679 -0.983807 2.597512 14.301056 10.184471 17.545566 -0.452926 0.000003 0.000002 0.000002 1.709517 9.720796 -19.558667 -0.008721 0.247833 -10.494172 -0.000001 0.000000 -0.000000 1.057076 11.308531 -10.284115 0.105696 0.639297 -31.254867 0.000001 -0.000001 -0.000001 0.610164 16.677524 -11.689222 -0.029859 0.296454 -34.045047 -0.000004 0.000000 -0.000003 -2.622281 12.970182 -17.461788 0.039976 0.173841 -26.131035 -0.000006 -0.000002 0.000001 0.000002 -0.000001 0.000001 3.395170 -0.672395 2.003501 8.012067 11.650639 67.112346 17.418014 27.811584 5.636412 -13.678459 -8.281488 -6.608051 -0.936018 -6.064933 -12.273047 9.039202 -16.260022 -0.189975 0.000000 0.000003 -0.000000 4.535804 2.961766 16.629861 -0.011297 -0.208841 12.386142 0.000002 0.000000 -0.000001 -1.099046 1.916783 13.192384 0.066932 -0.512628 29.263105 0.000003 -0.000000 -0.000001 -1.368031 -2.843508 14.935518 -0.029644 -0.237387 32.033584 -0.000001 0.000000 -0.000003 -3.983279 -3.487331 20.537392 0.028375 -0.143086 26.288111 -0.000000 0.000000 0.000002 0.000002 -0.000000 -0.000000 -0.000000 0.000003 0.000000 -0.000000 0.000001 -0.000000 -0.000000 0.000003 0.000000 -0.000000 0.000003 0.000000 -0.000000 0.000003 0.000000 -0.000000 0.000001 -0.000000 -0.000000 0.000003 0.000000 -0.000000 0.000003 0.000000 -0.000000 0.000003 0.000000 -0.000000 0.000001 -0.000000 -0.000000 0.000001 -0.000000 -0.000000 0.000001 -0.000000 -0.000000 0.000001 -0.000000 
37.240410 68.781120 128.506607 -22.738454 81.816575 12.048171 0.000000 -0.000000 -0.000000 -7.834134 4.810769 -5.288520 28.169187 -0.843585 0.552698 -15.991812 -3.300649 18.607206 0.000000 -0.000000 0.000000 -0.000000 0.000000 -0.000003 -22.805935 6.855163 0.859868 40.801576 0.333895 0.817707 -8.283454 -3.381219 5.416958 -0.000000 0.000000 0.000000 -0.000002 -0.000000 0.000000 14.127387 -0.428689 4.605177 -3.271891 -1.369762 0.576787 -3.290610 -1.241637 0.720098 7.444114 7.503098 -0.265845 -5.203942 9.725962 -8.211980 -0.000000 -0.000000 -0.000000 -0.000000 -0.000000 -0.000000 -0.000000 -0.000000 0.000000 -0.000000 -0.000000 -0.000000 -0.000000 -0.000000 -0.000000 -0.000000 -0.000000 -0.000000 -0.000000 -0.000000 -0.000000 -0.000000 -0.000000 -0.000000 -0.000000 -0.000000 -0.000000 2.720553 4.399013 -5.914734 -3.370247 -17.987373 -68.034285 8.278944 -23.159044 -2.254479 -9.446383 0.536644 15.201416 -1.031857 2.729268 14.253125 10.100547 17.433426 -0.414645 0.000002 -0.000000 0.000001 1.711625 9.522788 -19.634825 -0.008649 0.245638 -10.639185 0.000002 -0.000002 0.000001 1.102699 11.092526 -10.519604 0.105206 0.631443 -31.173274 0.000000 -0.000000 0.000002 0.688551 16.381753 -11.977496 -0.030271 0.293050 -33.971192 -0.000001 0.000001 0.000000 -2.541727 12.720220 -17.744623 0.040284 0.171854 -26.196132 0.000001 -0.000001 0.000003 -0.000000 -0.000002 0.000001 3.331477 -0.150114 1.122454 8.622941 11.738049 68.131226 18.009641 27.876247 5.380028 -14.122380 -8.658231 -7.085251 -0.948915 -4.461022 -13.189160 9.571299 -16.862654 0.101943 0.000001 0.000002 0.000003 5.001303 3.078487 15.852816 -0.009961 -0.227410 11.504332 -0.000003 0.000001 0.000000 -1.204609 1.912880 11.747495 0.078415 -0.572459 30.178074 -0.000001 -0.000000 -0.000001 -1.593278 -3.596899 13.210011 -0.029902 -0.265398 32.955779 0.000000 -0.000001 -0.000004 -4.397431 -4.477838 18.934642 0.030260 -0.159198 26.205363 -0.000001 0.000000 0.000002 0.000002 -0.000000 -0.000000 -0.000000 0.000000 -0.000000 -0.000000 0.000000 -0.000000 -0.000000 0.000000 -0.000000 -0.000000 0.000000 -0.000000 -0.000000 0.000000 -0.000000 -0.000000 0.000000 -0.000000 -0.000000 0.000000 -0.000000 -0.000000 0.000000 -0.000000 -0.000000 0.000000 -0.000000 -0.000000 0.000000 -0.000000 0.000000 -0.000000 -0.000000 0.000000 -0.000000 -0.000000 0.000000 -0.000000 -0.000000 
38.648838 68.746880 128.862534 -41.449587 86.489586 30.887352 -0.000000 0.000000 0.000001 -6.930195 3.565776 -4.752643 28.898384 -5.252281 0.267495 -16.903393 -3.057697 19.426878 0.000000 0.000000 -0.000000 -0.000001 -0.000000 0.000001 -22.219978 8.715150 1.259161 30.227955 5.205814 1.066599 -9.203465 -3.355353 5.193701 -0.000000 -0.000000 0.000000 0.000002 0.000000 -0.000000 13.519738 -0.587034 3.747855 -3.132409 -1.685919 1.376464 -3.140595 -1.473582 1.541295 7.454768 10.334723 -0.721301 -5.014105 12.591268 -8.752243 0.000000 0.000001 -0.000000 0.000000 0.000001 -0.000000 0.000000 0.000001 0.000000 0.000000 0.000001 -0.000000 -0.000001 0.000001 0.000000 0.000000 0.000001 -0.000000 -0.000001 0.000001 0.000000 0.000000 0.000001 -0.000000 0.000000 0.000001 -0.000000 2.754891 3.651017 -6.884875 -4.523168 -20.939294 -66.881274 8.373031 -23.915153 -1.822447 -10.379429 1.327672 15.389726 -1.301746 3.462666 13.989763 9.633086 16.807200 -0.205069 -0.000001 -0.000000 -0.000002 1.714568 8.415638 -20.057491 -0.009265 0.231848 -11.449443 -0.000000 -0.000001 -0.000000 1.325496 9.883621 -11.830070 0.097479 0.587514 -30.717359 -0.000001 -0.000000 -0.000003 1.072651 14.724805 -13.574066 -0.030529 0.272495 -33.559325 -0.000005 0.000001 0.000000 -2.135873 11.317162 -19.311894 0.036835 0.160154 -26.560184 -0.000000 -0.000001 0.000001 -0.000001 -0.000000 0.000002 3.269266 0.451990 -0.144596 9.050821 11.358305 69.335668 19.642914 27.866540 5.024662 -13.913980 -9.045576 -7.806278 -0.957031 -3.284941 -13.879093 9.967549 -17.309410 0.324623 0.000002 0.000000 0.000006 5.349418 3.157155 15.274480 -0.009095 -0.241297 10.850804 0.000000 0.000000 0.000000 -1.283510 1.913988 10.674699 0.087251 -0.616723 30.857012 -0.000000 -0.000000 -0.000001 -1.789779 -4.150939 11.925024 -0.029888 -0.286275 33.640492 -0.000001 0.000001 -0.000003 -4.740873 -5.202064 17.734835 0.031926 -0.170856 26.143676 -0.000000 -0.000000 0.000002 0.000003 -0.000000 -0.000000 -0.000000 -0.000000 0.000000 -0.000000 0.000000 0.000000 -0.000000 -0.000000 0.000000 -0.000000 -0.000000 0.000000 -0.000000 -0.000000 0.000000 -0.000000 0.000000 0.000000 -0.000000 -0.000000 0.000000 -0.000000 -0.000000 0.000000 -0.000000 -0.000000 0.000000 -0.000000 0.000000 0.000000 -0.000000 0.000000 0.000001 -0.000000 0.000000 0.000001 -0.000000 0.000000 0.000001 
40.074078 68.688271 129.145462 38.530036 92.667560 -48.825450 -0.000000 -0.000000 -0.000001 -5.897000 2.318858 -4.233251 29.483539 -9.491316 -0.010642 -17.636189 -2.760651 20.143671 0.000000 -0.000000 0.000000 -0.000002 0.000000 -0.000001 -21.539389 9.949992 2.184548 20.406314 10.983127 0.041454 -9.117158 -5.200731 8.220680 -0.000001 -0.000002 -0.000000 -0.000000 0.000000 -0.000000 13.085772 -0.665269 3.080189 -3.001317 -1.844507 1.873136 -3.005055 -1.579974 2.046325 7.544539 12.838608 -0.794073 -4.887782 15.272158 -9.494773 -0.000000 -0.000001 -0.000000 -0.000000 -0.000001 -0.000000 -0.000000 -0.000001 0.000000 -0.000000 -0.000001 0.000001 -0.000000 -0.000001 0.000001 -0.000000 -0.000001 0.000001 -0.000000 -0.000001 0.000001 -0.000000 -0.000001 -0.000000 -0.000000 -0.000001 -0.000000 2.764108 2.925690 -7.683944 -6.096198 -23.653633 -66.137234 8.842100 -23.885682 -1.399118 -11.050876 2.032839 16.318761 -1.739313 4.656454 13.581869 8.879222 15.793108 0.117414 -0.000000 -0.000002 -0.000001 1.687637 6.625121 -20.729021 -0.010451 0.209693 -12.761090 0.000001 0.000001 0.000002 1.571367 7.926084 -13.934247 0.083636 0.516521 -29.978827 0.000000 -0.000001 -0.000001 1.502867 12.038855 -16.113642 -0.028878 0.239200 -32.893269 -0.000000 -0.000000 -0.000003 -1.635746 9.032421 -21.804144 0.030280 0.141456 -27.149264 -0.000001 0.000000 0.000003 0.000002 0.000001 -0.000000 3.239375 0.866991 -1.000517 9.495017 11.320436 70.288527 21.088761 27.879992 4.733792 -13.935906 -9.497011 -8.480224 -0.961369 -2.637453 -14.265233 10.187528 -17.556361 0.450282 -0.000003 0.000001 0.000003 5.543271 3.197876 14.955075 -0.008680 -0.248594 10.486378 0.000001 -0.000000 0.000002 -1.327348 1.916426 10.080186 0.092467 -0.641160 31.233372 0.000000 0.000000 -0.000001 -1.909403 -4.455752 11.211186 -0.029768 -0.297504 34.020103 -0.000002 0.000001 -0.000002 -4.944374 -5.599104 17.065779 0.033100 -0.176977 26.109646 -0.000001 0.000000 0.000000 0.000002 -0.000001 0.000001 -0.000000 -0.000000 0.000000 0.000000 0.000000 0.000000 -0.000000 -0.000000 -0.000000 -0.000000 -0.000000 -0.000000 -0.000000 -0.000000 0.000000 0.000000 0.000000 0.000000 -0.000000 -0.000000 -0.000000 -0.000000 -0.000000 -0.000000 -0.000000 -0.000000 0.000000 0.000000 0.000000 0.000000 -0.000000 -0.000000 -0.000001 -0.000000 -0.000000 -0.000001 -0.000000 -0.000000 -0.000001 
